<?xml version="1.0" encoding="utf-8"?>
<svg id="master-artboard" viewBox="0 0 1418 425" version="1.1" xmlns="http://www.w3.org/2000/svg" x="0px" y="0px" style="enable-background:new 0 0 1400 980;" width="1418px" height="425px"><defs><style id="ee-google-fonts">@import url(https://fonts.googleapis.com/css?family=Roboto:100,100italic,300,300italic,400,400italic,500,500italic,700,700italic,900,900italic);</style><clipPath id="clip0">
<path d="M 0 0 H 250 V 250 H 0 V 0 Z" fill="white" transform="translate(0.222168)"/>
</clipPath></defs>























































































































<path d="M 260.79998779296875 86.19999694824219" style="fill: rgb(23, 168, 247); fill-opacity: 1; stroke: rgb(0, 0, 0); stroke-opacity: 1; stroke-width: 0; paint-order: fill;" transform="matrix(1, 0, 0, 1, -0.000030517578125, 0)"/><g transform="matrix(1.6826921701431274, 0, 0, 1.6826921701431274, 6.9466094970703125, 244.93026733398438)"><g clip-path="url(#clip0)" transform="matrix(1, 0, 0, 1, 2.842170943040401e-14, -144.49012551188386)">
<path fill-rule="evenodd" clip-rule="evenodd" d="M0.222168 123.815V224.377C0.222168 238.417 11.7174 250 25.8452 250H126.407V123.815H105.61L105.698 125.483L93.1495 131.801L96.7473 166.286L94.5535 168.305L92.272 217.884C92.272 217.884 102.627 218.235 104.294 222.71C105.961 227.185 87.709 230.871 74.371 229.028L73.8445 179.712C73.8445 179.712 59.4535 195.419 32.8652 196.911C32.8652 196.911 36.7262 208.582 30.4959 208.407C24.1779 208.231 20.4047 185.153 20.4047 185.153L45.94 175.588L48.1337 160.846L44.0972 160.144L45.1502 151.983C44.6237 151.193 44.185 150.14 43.834 148.736C42.3422 153.738 42.3422 155.844 42.3422 155.844L39.8852 156.02C39.8852 156.02 40.0607 162.338 38.8322 162.513C37.6037 162.689 37.867 159.793 37.867 159.793C37.6037 164.97 33.8304 168.305 32.5142 163.391C30.8469 157.16 34.1815 157.775 33.4795 152.861C34.006 139.084 38.4812 129.958 43.5707 124.079H0.222168V123.815Z" fill="#FF696A"/>
<path fill-rule="evenodd" clip-rule="evenodd" d="M109.471 118.374H126.319V97.7531C125.354 98.4551 124.301 99.1571 123.16 99.8591C123.072 99.8591 116.052 111.442 109.471 118.374ZM126.319 6.40527H36.9895C24.529 6.40527 14.2622 16.5843 14.2622 29.1325V118.374H49.3622C54.5395 114.601 58.927 113.548 58.927 113.548C58.927 113.548 28.9165 109.424 30.4082 68.7956C30.4082 68.7956 30.3205 54.8433 41.5525 44.6643C41.5525 44.6643 38.3935 47.0336 38.0425 56.3351C48.748 40.4523 56.3823 44.3133 87.709 36.1526C81.391 41.0666 72.3528 42.8216 65.0695 45.6296C65.0695 45.6296 83.6725 42.9093 95.1678 35.3628C95.1678 35.3628 89.464 43.4358 81.3033 46.2438C81.3033 46.2438 95.9575 44.1378 101.749 35.6261C101.749 35.6261 100.696 48.6131 97.6248 54.7556C97.6248 54.7556 104.733 63.7061 103.592 75.0258C103.592 75.0258 102.89 79.8521 104.118 81.6948C105.435 83.5376 109.647 99.4204 93.7638 109.599L100.257 110.126L117.632 96.0859C117.632 96.0859 114.824 86.0823 117.632 84.2396C120.44 82.3968 120.001 89.4169 120.001 89.4169C120.001 89.4169 122.546 83.8886 125.705 81.0806C125.88 80.9051 126.056 80.8173 126.231 80.6418V43.7868L123.127 48.6377C122.341 49.865 120.444 49.3646 120.366 47.9095L119.913 39.4871L111.685 37.3307C110.276 36.9615 110.167 35.0041 111.525 34.4802L119.475 31.414L118.967 23.0032C118.879 21.5474 120.71 20.8351 121.629 21.9677L126.231 27.6408V6.40527H126.319Z" fill="#FFC332"/>
<path fill-rule="evenodd" clip-rule="evenodd" d="M131.847 123.815V234.907H220.387C232.76 234.907 242.939 224.728 242.939 212.355V123.815H216.789L215.034 124.868L215.21 127.501C215.21 127.501 202.135 130.66 200.292 129.695L210.383 155.405L211.524 159.091L219.685 170.235C219.685 170.235 215.999 178.045 208.541 181.818C208.541 181.818 225.038 181.906 231.882 179.449C238.815 176.992 234.515 193.401 234.515 193.401C234.515 193.401 236.533 206.213 233.374 205.686C230.215 205.16 225.476 209.021 224.072 195.068C224.072 195.068 209.155 197.525 203.978 194.366C198.8 191.207 193.886 183.749 193.886 183.749L180.987 184.889L181.426 215.69C181.426 215.69 187.393 222.008 183.093 224.64C178.793 227.273 167.649 231.572 161.682 229.642C155.715 227.799 159.05 221.832 159.05 221.832L168.527 216.655C168.527 216.655 169.667 191.909 167.035 183.836C159.225 182.52 152.819 177.606 152.819 177.606L158.786 154.528C158.786 154.528 159.401 139.874 164.929 123.728H131.847V123.815Z" fill="#9DCC38"/>
<path fill-rule="evenodd" clip-rule="evenodd" d="M250.222 92.9274V83.9769L250.134 84.1524C250.134 84.1524 247.239 80.7301 240.833 79.0628C240.833 79.0628 248.292 83.6259 249.52 86.5216C249.52 86.5216 247.326 91.1724 245.22 92.8396C245.22 92.8396 238.815 85.6441 232.058 81.3443C232.058 81.3443 233.023 85.5564 226.266 83.9769C226.266 83.9769 227.495 106.09 207.751 112.057C207.751 112.057 221.265 111.969 238.025 101C238.025 101 237.498 98.8066 241.184 93.7171C244.869 88.7154 241.974 99.8596 241.974 99.8596C241.974 99.8596 245.747 94.8579 250.222 92.9274ZM225.652 118.375H250.222V104.423C248.818 105.3 246.888 106.178 244.343 106.792L225.652 118.375ZM226.179 0H131.847V26.5883L135.008 25.361C136.362 24.8353 137.598 26.3487 136.813 27.5705L132.198 34.749L137.607 41.3531C138.528 42.4776 137.471 44.1235 136.065 43.7543L131.847 42.6465V85.6441C132.11 85.5564 132.374 85.5564 132.549 85.6441C133.251 85.8196 132.725 86.8726 131.847 88.1011V90.0316C132.198 89.9439 132.549 89.9439 132.9 89.9439C133.69 90.1194 133.339 91.2601 131.847 93.0151V118.463H165.192C159.839 115.128 141.938 102.141 142.289 81.5198C142.289 81.5198 127.723 66.8656 139.745 63.0046C140.271 62.8291 142.904 68.8838 143.518 68.7961C143.518 68.7961 143.869 64.3208 145.185 65.1106C147.116 66.2513 148.958 69.4103 146.677 78.0976C146.677 78.0976 154.311 93.8926 156.944 94.6824C156.944 94.6824 155.627 87.2236 156.768 85.7319C156.768 85.7319 156.768 85.38 157.541 77.634C157.541 77.634 155.54 63.4433 164.051 55.5458C164.051 55.5458 159.576 55.5458 161.419 51.4216C161.419 51.4216 155.276 49.2278 148.958 49.9298C148.958 49.9298 148.783 47.7361 150.889 42.8221C150.889 42.8221 154.925 42.5588 159.313 44.5771C159.313 44.5771 157.733 41.2426 152.205 40.365C152.205 40.365 153.697 35.451 157.909 33.1695C157.909 33.1695 164.578 34.5735 169.58 42.4711C169.58 42.4711 175.108 41.2426 174.669 46.8586C174.669 46.8586 213.192 32.2043 226.617 69.4103C226.617 69.4103 230.391 66.6901 232.584 70.8143C232.584 70.8143 244.606 68.9716 250.31 72.3938V24.0435C250.222 10.7933 239.429 0 226.179 0Z" fill="#5BCACD"/>
</g><path d="M342.445 192.538V192.329C342.445 182.499 337.216 177.583 328.746 174.342C333.974 171.413 338.367 166.812 338.367 158.551V158.341C338.367 146.838 329.164 139.413 314.209 139.413H280.222V212.616H315.046C331.569 212.616 342.445 205.924 342.445 192.538ZM322.366 161.27C322.366 166.707 317.87 169.008 310.758 169.008H295.909V153.531H311.804C318.602 153.531 322.366 156.25 322.366 161.06V161.27ZM326.445 190.551C326.445 195.989 322.157 198.499 315.046 198.499H295.909V182.394H314.523C322.785 182.394 326.445 185.427 326.445 190.342V190.551Z" fill="#4E4E4E" style="fill: rgb(252, 252, 252);" transform="matrix(1, 0, 0, 1, 2.842170943040401e-14, -144.49012551188386)"/><path d="M424.504 176.015V175.806C424.504 154.995 408.294 138.158 385.706 138.158C363.118 138.158 346.699 155.204 346.699 176.015V176.224C346.699 197.035 362.908 213.871 385.497 213.871C408.085 213.871 424.504 196.825 424.504 176.015ZM407.667 176.224C407.667 188.773 398.673 199.022 385.706 199.022C372.739 199.022 363.536 188.564 363.536 176.015V175.806C363.536 163.256 372.529 153.008 385.497 153.008C398.464 153.008 407.667 163.466 407.667 176.015V176.224Z" fill="#4E4E4E" style="fill: rgb(252, 252, 252);" transform="matrix(1, 0, 0, 1, 2.842170943040401e-14, -144.49012551188386)"/><path d="M500.594 202.263V170.472H468.803V184.381H485.013V194.838C480.934 197.767 475.705 199.231 469.849 199.231C456.882 199.231 447.679 189.401 447.679 176.015V175.806C447.679 163.361 456.986 153.008 468.699 153.008C477.169 153.008 482.189 155.727 487.836 160.433L497.98 148.198C490.346 141.714 482.398 138.158 469.222 138.158C447.051 138.158 430.842 155.204 430.842 176.015V176.224C430.842 197.871 446.529 213.871 469.326 213.871C482.712 213.871 493.065 208.643 500.594 202.263Z" fill="#4E4E4E" style="fill: rgb(252, 252, 252);" transform="matrix(1, 0, 0, 1, 2.842170943040401e-14, -144.49012551188386)"/><path d="M595.568 200.799L585.319 190.446C579.568 195.675 574.444 199.022 566.077 199.022C553.528 199.022 544.849 188.564 544.849 176.015V175.806C544.849 163.256 553.737 153.008 566.077 153.008C573.398 153.008 579.149 156.145 584.797 161.27L595.045 149.452C588.248 142.76 579.986 138.158 566.182 138.158C543.698 138.158 528.012 155.204 528.012 176.015V176.224C528.012 197.244 544.012 213.871 565.555 213.871C579.672 213.871 588.038 208.852 595.568 200.799Z" fill="#4E4E4E" style="fill: rgb(252, 252, 252);" transform="matrix(1, 0, 0, 1, 2.842170943040401e-14, -144.49012551188386)"/><path d="M663.572 212.616V139.413H647.467V168.381H617.767V139.413H601.663V212.616H617.767V183.231H647.467V212.616H663.572Z" fill="#4E4E4E" style="fill: rgb(252, 252, 252);" transform="matrix(1, 0, 0, 1, 2.842170943040401e-14, -144.49012551188386)"/><path d="M747.208 212.616L715.835 138.89H700.986L669.613 212.616H686.031L692.724 196.198H723.679L730.372 212.616H747.208ZM717.927 181.976H698.476L708.201 158.237L717.927 181.976Z" fill="#4E4E4E" style="fill: rgb(252, 252, 252);" transform="matrix(1, 0, 0, 1, 2.842170943040401e-14, -144.49012551188386)"/><path d="M808.285 190.969V190.76C808.285 178.002 799.919 172.668 785.069 168.799C772.415 165.557 769.278 163.989 769.278 159.178V158.969C769.278 155.413 772.52 152.59 778.69 152.59C784.86 152.59 791.239 155.309 797.723 159.805L806.089 147.675C798.664 141.714 789.566 138.367 778.899 138.367C763.945 138.367 753.278 147.152 753.278 160.433V160.642C753.278 175.178 762.794 179.257 777.539 183.021C789.775 186.159 792.285 188.25 792.285 192.329V192.538C792.285 196.825 788.311 199.44 781.723 199.44C773.356 199.44 766.454 195.989 759.866 190.551L750.35 201.95C759.134 209.793 770.324 213.662 781.409 213.662C797.2 213.662 808.285 205.505 808.285 190.969Z" fill="#4E4E4E" style="fill: rgb(252, 252, 252);" transform="matrix(1, 0, 0, 1, 2.842170943040401e-14, -144.49012551188386)"/><path d="M831.778 212.616V139.413H815.673V212.616H831.778Z" fill="#4E4E4E" style="fill: rgb(252, 252, 252);" transform="matrix(1, 0, 0, 1, 2.842170943040401e-14, -144.49012551188386)"/><path d="M523.26 145.05L522.251 140.158C513.011 140.313 507.887 144.428 507.887 154.677V165.158H520.465V152.736H515.651C515.263 148.31 517.903 145.593 523.26 145.05Z" fill="#4E4E4E" style="fill: rgb(252, 252, 252);" transform="matrix(1, 0, 0, 1, 2.842170943040401e-14, -144.49012551188386)"/><path d="M342.445 90.5075V90.2984C342.445 80.4682 337.216 75.5531 328.746 72.3113C333.974 69.3832 338.367 64.7818 338.367 56.5203V56.3111C338.367 44.8078 329.164 37.3828 314.209 37.3828H280.222V110.586H315.046C331.569 110.586 342.445 103.893 342.445 90.5075ZM322.366 59.2393C322.366 64.6772 317.87 66.9779 310.758 66.9779H295.909V51.5006H311.804C318.602 51.5006 322.366 54.2196 322.366 59.0301V59.2393ZM326.445 88.5206C326.445 93.9586 322.157 96.4684 315.046 96.4684H295.909V80.3637H314.523C322.785 80.3637 326.445 83.3964 326.445 88.3114V88.5206Z" fill="#4E4E4E" style="fill: rgb(251, 251, 251);" transform="matrix(1, 0, 0, 1, 2.842170943040401e-14, -144.49012551188386)"/><path d="M425.027 73.9845V73.7754C425.027 52.9647 408.817 36.1279 386.229 36.1279C363.64 36.1279 347.222 53.1738 347.222 73.9845V74.1937C347.222 95.0043 363.431 111.841 386.02 111.841C408.608 111.841 425.027 94.7952 425.027 73.9845ZM408.19 74.1937C408.19 86.7428 399.196 96.9913 386.229 96.9913C373.261 96.9913 364.059 86.5336 364.059 73.9845V73.7754C364.059 61.2262 373.052 50.9777 386.02 50.9777C398.987 50.9777 408.19 61.4354 408.19 73.9845V74.1937Z" fill="#4E4E4E" style="fill: rgb(254, 254, 254);" transform="matrix(1, 0, 0, 1, 2.842170943040401e-14, -144.49012551188386)"/><path d="M485.117 110.586V95.9455H448.62V37.3828H432.515V110.586H485.117Z" fill="#4E4E4E" style="fill: rgb(251, 251, 251);" transform="matrix(1, 0, 0, 1, 2.842170943040401e-14, -144.49012551188386)"/><path d="M567.538 110.586L536.165 36.86H521.315L489.942 110.586H506.361L513.054 94.1677H544.008L550.701 110.586H567.538ZM538.257 79.9453H518.805L528.531 56.2066L538.257 79.9453Z" fill="#4E4E4E" style="fill: rgb(251, 251, 251);" transform="matrix(1, 0, 0, 1, 2.842170943040401e-14, -144.49012551188386)"/><path d="M626.732 110.586V95.9455H590.235V37.3828H574.13V110.586H626.732Z" fill="#4E4E4E" style="fill: rgb(251, 251, 251);" transform="matrix(1, 0, 0, 1, 2.842170943040401e-14, -144.49012551188386)"/><path d="M710.199 110.586L678.826 36.86H663.976L632.603 110.586H649.021L655.714 94.1677H686.669L693.362 110.586H710.199ZM680.917 79.9453H661.466L671.192 56.2066L680.917 79.9453Z" fill="#4E4E4E" style="fill: rgb(251, 251, 251);" transform="matrix(1, 0, 0, 1, 2.842170943040401e-14, -144.49012551188386)"/><path d="M778.491 110.586L760.608 84.4421C769.916 80.9911 776.295 73.5662 776.295 61.7491V61.5399C776.295 46.481 765.942 37.3828 748.687 37.3828H715.222V110.586H731.327V87.1611H743.981L759.667 110.586H778.491ZM759.981 62.5857C759.981 68.7557 755.484 72.9387 747.641 72.9387H731.327V51.9189H747.327C755.17 51.9189 759.981 55.4745 759.981 62.3765V62.5857Z" fill="#4E4E4E" style="fill: rgb(251, 251, 251);" transform="matrix(1, 0, 0, 1, 2.842170943040401e-14, -144.49012551188386)"/><path d="M 440.8503112792969 64.10739135742188 L 440.8503112792969 64.10739135742188" style="fill: rgb(78, 78, 78); fill-opacity: 1; stroke: rgb(0, 0, 0); stroke-opacity: 1; stroke-width: 0; paint-order: fill;"/><path d="M 416.76861572265625 67.54763793945312 L 416.76861572265625 67.54763793945312" style="fill: rgb(78, 78, 78); fill-opacity: 1; stroke: rgb(0, 0, 0); stroke-opacity: 1; stroke-width: 0; paint-order: fill;"/><path d="M 414.01641845703125 89.56519317626953 L 414.01641845703125 89.56519317626953" style="fill: rgb(78, 78, 78); fill-opacity: 1; stroke: rgb(0, 0, 0); stroke-opacity: 1; stroke-width: 0; paint-order: fill;"/></g><rect id="ee-background" x="0" y="0" width="1418" height="425" style="fill: white; fill-opacity: 0; pointer-events: none;"/></svg>